<mxfile host="app.diagrams.net" modified="2022-05-18T07:38:23.479Z" agent="5.0 (X11; Linux x86_64) AppleWebKit/537.36 (KHTML, like Gecko) Chrome/101.0.4951.54 Safari/537.36" etag="bB_5aui8D1rBCJ2nXyNL" version="18.0.7" type="github">
  <diagram name="Page-1" id="e3a06f82-3646-2815-327d-82caf3d4e204">
    <mxGraphModel dx="2062" dy="1126" grid="1" gridSize="10" guides="1" tooltips="1" connect="1" arrows="1" fold="1" page="1" pageScale="1.5" pageWidth="1169" pageHeight="826" background="none" math="0" shadow="0">
      <root>
        <mxCell id="0" style=";html=1;" />
        <mxCell id="1" style=";html=1;" parent="0" />
        <mxCell id="Fj-cvWy29sqC1OHBUp45-1" value="Réseau privé" style="whiteSpace=wrap;html=1;fillColor=#dae8fc;fontSize=14;strokeColor=#6c8ebf;verticalAlign=top;" vertex="1" parent="1">
          <mxGeometry x="960" y="100" width="720" height="770" as="geometry" />
        </mxCell>
        <mxCell id="Fj-cvWy29sqC1OHBUp45-2" value="Réseau publique" style="whiteSpace=wrap;html=1;fillColor=#f5f5f5;fontSize=14;strokeColor=#666666;verticalAlign=top;fontColor=#333333;" vertex="1" parent="1">
          <mxGeometry x="220" y="100" width="720" height="770" as="geometry" />
        </mxCell>
        <mxCell id="6a7d8f32e03d9370-61" value="CAMPUS" style="whiteSpace=wrap;html=1;fillColor=#f8cecc;fontSize=14;strokeColor=none;verticalAlign=top;" parent="1" vertex="1">
          <mxGeometry x="1070" y="200" width="493" height="310" as="geometry" />
        </mxCell>
        <mxCell id="6a7d8f32e03d9370-60" value="DATACENTER" style="whiteSpace=wrap;html=1;fillColor=#d5e8d4;fontSize=14;strokeColor=none;verticalAlign=top;" parent="1" vertex="1">
          <mxGeometry x="1070" y="580" width="493" height="250" as="geometry" />
        </mxCell>
        <mxCell id="6a7d8f32e03d9370-59" value="Hôpital&lt;br&gt;Protection périmétrique" style="whiteSpace=wrap;html=1;fillColor=#EDEDED;fontSize=14;strokeColor=none;verticalAlign=top;" parent="1" vertex="1">
          <mxGeometry x="610" y="264.75" width="320" height="340" as="geometry" />
        </mxCell>
        <mxCell id="6a7d8f32e03d9370-57" value="Attaquant" style="whiteSpace=wrap;html=1;fillColor=#FFD470;gradientColor=none;fontSize=14;strokeColor=none;verticalAlign=top;" parent="1" vertex="1">
          <mxGeometry x="264.5" y="260" width="227" height="330" as="geometry" />
        </mxCell>
        <mxCell id="6a7d8f32e03d9370-35" style="edgeStyle=none;rounded=0;html=1;startSize=10;endSize=10;jettySize=auto;orthogonalLoop=1;fontSize=14;endArrow=none;endFill=0;strokeWidth=2;entryX=0.493;entryY=0.516;entryDx=0;entryDy=0;entryPerimeter=0;startArrow=none;" parent="1" source="gEVQ5dZSEpCPINI65oIb-5" target="6a7d8f32e03d9370-20" edge="1">
          <mxGeometry relative="1" as="geometry">
            <mxPoint x="637" y="693.320415879017" as="targetPoint" />
          </mxGeometry>
        </mxCell>
        <mxCell id="6a7d8f32e03d9370-2" value="" style="verticalLabelPosition=bottom;aspect=fixed;html=1;verticalAlign=top;strokeColor=none;shape=mxgraph.citrix.laptop_2;fillColor=#66B2FF;gradientColor=#0066CC;fontSize=14;" parent="1" vertex="1">
          <mxGeometry x="319.9999999999999" y="391.5" width="116" height="86.5" as="geometry" />
        </mxCell>
        <mxCell id="6a7d8f32e03d9370-52" style="edgeStyle=none;rounded=0;html=1;startSize=10;endSize=10;jettySize=auto;orthogonalLoop=1;fontSize=14;endArrow=none;endFill=0;strokeWidth=2;" parent="1" source="6a7d8f32e03d9370-13" target="6a7d8f32e03d9370-26" edge="1">
          <mxGeometry relative="1" as="geometry" />
        </mxCell>
        <mxCell id="6a7d8f32e03d9370-56" style="edgeStyle=none;rounded=0;html=1;startSize=10;endSize=10;jettySize=auto;orthogonalLoop=1;fontSize=14;endArrow=none;endFill=0;strokeWidth=2;entryX=0.522;entryY=0.596;entryDx=0;entryDy=0;entryPerimeter=0;" parent="1" source="6a7d8f32e03d9370-13" target="gEVQ5dZSEpCPINI65oIb-7" edge="1">
          <mxGeometry relative="1" as="geometry" />
        </mxCell>
        <mxCell id="6a7d8f32e03d9370-13" value="" style="verticalLabelPosition=bottom;aspect=fixed;html=1;verticalAlign=top;strokeColor=none;shape=mxgraph.citrix.router;fillColor=#66B2FF;gradientColor=#0066CC;fontSize=14;" parent="1" vertex="1">
          <mxGeometry x="973" y="419.75" width="55" height="36.5" as="geometry" />
        </mxCell>
        <mxCell id="6a7d8f32e03d9370-15" value="SRV-WEB" style="verticalLabelPosition=top;aspect=fixed;html=1;verticalAlign=bottom;strokeColor=none;shape=mxgraph.citrix.cache_server;fillColor=#66B2FF;gradientColor=#0066CC;fontSize=14;labelPosition=center;align=center;" parent="1" vertex="1">
          <mxGeometry x="730" y="482.5" width="71" height="97.5" as="geometry" />
        </mxCell>
        <mxCell id="6a7d8f32e03d9370-47" style="edgeStyle=none;rounded=0;html=1;startSize=10;endSize=10;jettySize=auto;orthogonalLoop=1;fontSize=14;endArrow=none;endFill=0;strokeWidth=2;exitX=0.63;exitY=0.548;exitDx=0;exitDy=0;exitPerimeter=0;" parent="1" source="gEVQ5dZSEpCPINI65oIb-2" target="6a7d8f32e03d9370-13" edge="1">
          <mxGeometry relative="1" as="geometry" />
        </mxCell>
        <mxCell id="gEVQ5dZSEpCPINI65oIb-1" value="" style="edgeStyle=orthogonalEdgeStyle;rounded=0;orthogonalLoop=1;jettySize=auto;html=1;" parent="1" source="6a7d8f32e03d9370-13" target="6a7d8f32e03d9370-31" edge="1">
          <mxGeometry relative="1" as="geometry">
            <Array as="points">
              <mxPoint x="970" y="438" />
              <mxPoint x="970" y="810" />
            </Array>
          </mxGeometry>
        </mxCell>
        <mxCell id="6a7d8f32e03d9370-25" value="SRV-2008" style="verticalLabelPosition=bottom;aspect=fixed;html=1;verticalAlign=top;strokeColor=none;shape=mxgraph.citrix.proxy_server;fillColor=#66B2FF;gradientColor=#0066CC;fontSize=14;" parent="1" vertex="1">
          <mxGeometry x="1278.25" y="650" width="76.5" height="90" as="geometry" />
        </mxCell>
        <mxCell id="6a7d8f32e03d9370-53" style="edgeStyle=none;rounded=0;html=1;startSize=10;endSize=10;jettySize=auto;orthogonalLoop=1;fontSize=14;endArrow=none;endFill=0;strokeWidth=2;" parent="1" source="6a7d8f32e03d9370-26" target="6a7d8f32e03d9370-29" edge="1">
          <mxGeometry relative="1" as="geometry" />
        </mxCell>
        <mxCell id="6a7d8f32e03d9370-54" style="edgeStyle=none;rounded=0;html=1;startSize=10;endSize=10;jettySize=auto;orthogonalLoop=1;fontSize=14;endArrow=none;endFill=0;strokeWidth=2;" parent="1" source="6a7d8f32e03d9370-26" target="6a7d8f32e03d9370-28" edge="1">
          <mxGeometry relative="1" as="geometry" />
        </mxCell>
        <mxCell id="6a7d8f32e03d9370-55" style="edgeStyle=none;rounded=0;html=1;startSize=10;endSize=10;jettySize=auto;orthogonalLoop=1;fontSize=14;endArrow=none;endFill=0;strokeWidth=2;" parent="1" source="6a7d8f32e03d9370-26" target="6a7d8f32e03d9370-27" edge="1">
          <mxGeometry relative="1" as="geometry" />
        </mxCell>
        <mxCell id="6a7d8f32e03d9370-26" value="" style="verticalLabelPosition=bottom;aspect=fixed;html=1;verticalAlign=top;strokeColor=none;shape=mxgraph.citrix.switch;fillColor=#66B2FF;gradientColor=#0066CC;fontSize=14;" parent="1" vertex="1">
          <mxGeometry x="1135" y="403.25" width="92" height="41.5" as="geometry" />
        </mxCell>
        <mxCell id="6a7d8f32e03d9370-27" value="Client" style="verticalLabelPosition=top;aspect=fixed;html=1;verticalAlign=bottom;strokeColor=none;shape=mxgraph.citrix.thin_client;fillColor=#66B2FF;gradientColor=#0066CC;fontSize=14;labelPosition=center;align=center;" parent="1" vertex="1">
          <mxGeometry x="1397" y="393.25" width="71" height="71" as="geometry" />
        </mxCell>
        <mxCell id="6a7d8f32e03d9370-28" value="Client" style="verticalLabelPosition=top;aspect=fixed;html=1;verticalAlign=bottom;strokeColor=none;shape=mxgraph.citrix.thin_client;fillColor=#66B2FF;gradientColor=#0066CC;fontSize=14;labelPosition=center;align=center;" parent="1" vertex="1">
          <mxGeometry x="1319" y="269.25" width="71" height="71" as="geometry" />
        </mxCell>
        <mxCell id="6a7d8f32e03d9370-29" value="Client" style="verticalLabelPosition=top;aspect=fixed;html=1;verticalAlign=bottom;strokeColor=none;shape=mxgraph.citrix.thin_client;fillColor=#66B2FF;gradientColor=#0066CC;fontSize=14;labelPosition=center;align=center;" parent="1" vertex="1">
          <mxGeometry x="1163" y="233.25" width="71" height="71" as="geometry" />
        </mxCell>
        <mxCell id="6a7d8f32e03d9370-31" value="VPN Autres Hôpitaux" style="verticalLabelPosition=bottom;aspect=fixed;html=1;verticalAlign=top;strokeColor=none;shape=mxgraph.citrix.site;fillColor=#66B2FF;gradientColor=#0066CC;fontSize=14;" parent="1" vertex="1">
          <mxGeometry x="973" y="870" width="107" height="101" as="geometry" />
        </mxCell>
        <mxCell id="6a7d8f32e03d9370-62" value="Anatomie d&#39;une attaque" style="text;strokeColor=none;fillColor=none;html=1;fontSize=24;fontStyle=1;verticalAlign=middle;align=center;" parent="1" vertex="1">
          <mxGeometry x="499" y="30" width="861" height="40" as="geometry" />
        </mxCell>
        <mxCell id="gEVQ5dZSEpCPINI65oIb-3" style="edgeStyle=none;rounded=0;html=1;startSize=10;endSize=10;jettySize=auto;orthogonalLoop=1;fontSize=14;endArrow=none;endFill=0;strokeWidth=2;exitX=0.5;exitY=0.669;exitDx=0;exitDy=0;exitPerimeter=0;entryX=0.533;entryY=0.599;entryDx=0;entryDy=0;entryPerimeter=0;" parent="1" source="gEVQ5dZSEpCPINI65oIb-2" target="6a7d8f32e03d9370-20" edge="1">
          <mxGeometry relative="1" as="geometry">
            <mxPoint x="877.96" y="372.99199999999996" as="sourcePoint" />
            <mxPoint x="983" y="432.4370001508978" as="targetPoint" />
          </mxGeometry>
        </mxCell>
        <mxCell id="gEVQ5dZSEpCPINI65oIb-4" style="edgeStyle=none;rounded=0;html=1;startSize=10;endSize=10;jettySize=auto;orthogonalLoop=1;fontSize=14;endArrow=none;endFill=0;strokeWidth=2;" parent="1" target="6a7d8f32e03d9370-15" edge="1">
          <mxGeometry relative="1" as="geometry">
            <mxPoint x="870" y="370" as="sourcePoint" />
            <mxPoint x="719.9749999999999" y="458.97900000000004" as="targetPoint" />
          </mxGeometry>
        </mxCell>
        <mxCell id="6a7d8f32e03d9370-20" value="" style="verticalLabelPosition=bottom;aspect=fixed;html=1;verticalAlign=top;strokeColor=none;shape=mxgraph.citrix.firewall;fillColor=#66B2FF;gradientColor=#0066CC;fontSize=14;" parent="1" vertex="1">
          <mxGeometry x="640" y="388.25" width="75" height="93" as="geometry" />
        </mxCell>
        <mxCell id="gEVQ5dZSEpCPINI65oIb-2" value="" style="verticalLabelPosition=bottom;aspect=fixed;html=1;verticalAlign=top;strokeColor=none;shape=mxgraph.citrix.switch;fillColor=#66B2FF;gradientColor=#0066CC;fontSize=14;" parent="1" vertex="1">
          <mxGeometry x="810" y="340.25" width="92" height="41.5" as="geometry" />
        </mxCell>
        <mxCell id="gEVQ5dZSEpCPINI65oIb-6" value="" style="edgeStyle=none;rounded=0;html=1;startSize=10;endSize=10;jettySize=auto;orthogonalLoop=1;fontSize=14;endArrow=none;endFill=0;strokeWidth=2;entryX=0.493;entryY=0.516;entryDx=0;entryDy=0;entryPerimeter=0;" parent="1" source="6a7d8f32e03d9370-2" target="gEVQ5dZSEpCPINI65oIb-5" edge="1">
          <mxGeometry relative="1" as="geometry">
            <mxPoint x="676.9749999999999" y="436.23800000000006" as="targetPoint" />
            <mxPoint x="436" y="435.0386662764445" as="sourcePoint" />
          </mxGeometry>
        </mxCell>
        <mxCell id="gEVQ5dZSEpCPINI65oIb-5" value="" style="verticalLabelPosition=bottom;sketch=0;aspect=fixed;html=1;verticalAlign=top;strokeColor=none;align=center;outlineConnect=0;shape=mxgraph.citrix.cloud;" parent="1" vertex="1">
          <mxGeometry x="500" y="407" width="95" height="62" as="geometry" />
        </mxCell>
        <mxCell id="gEVQ5dZSEpCPINI65oIb-7" value="" style="verticalLabelPosition=bottom;aspect=fixed;html=1;verticalAlign=top;strokeColor=none;shape=mxgraph.citrix.switch;fillColor=#66B2FF;gradientColor=#0066CC;fontSize=14;" parent="1" vertex="1">
          <mxGeometry x="1100" y="674.25" width="92" height="41.5" as="geometry" />
        </mxCell>
        <mxCell id="gEVQ5dZSEpCPINI65oIb-8" style="edgeStyle=none;rounded=0;html=1;startSize=10;endSize=10;jettySize=auto;orthogonalLoop=1;fontSize=14;endArrow=none;endFill=0;strokeWidth=2;" parent="1" source="gEVQ5dZSEpCPINI65oIb-7" target="6a7d8f32e03d9370-25" edge="1">
          <mxGeometry relative="1" as="geometry">
            <mxPoint x="1020.8160078778774" y="466.25" as="sourcePoint" />
            <mxPoint x="1158.024" y="708.9839999999999" as="targetPoint" />
          </mxGeometry>
        </mxCell>
        <mxCell id="gEVQ5dZSEpCPINI65oIb-14" value="" style="shape=flexArrow;endArrow=classic;html=1;rounded=0;exitX=0.552;exitY=0.676;exitDx=0;exitDy=0;exitPerimeter=0;fillColor=#e51400;strokeColor=#B20000;" parent="1" source="6a7d8f32e03d9370-2" target="6a7d8f32e03d9370-15" edge="1">
          <mxGeometry width="50" height="50" relative="1" as="geometry">
            <mxPoint x="310" y="530.75" as="sourcePoint" />
            <mxPoint x="690" y="530.75" as="targetPoint" />
          </mxGeometry>
        </mxCell>
        <mxCell id="gEVQ5dZSEpCPINI65oIb-15" value="&lt;font style=&quot;font-size: 21px;&quot;&gt;Etape 1 : Accéder au serveur WEB&lt;/font&gt;" style="text;html=1;resizable=0;autosize=1;align=center;verticalAlign=middle;points=[];fillColor=none;strokeColor=none;rounded=0;" parent="1" vertex="1">
          <mxGeometry x="264.5" y="654.25" width="340" height="20" as="geometry" />
        </mxCell>
        <mxCell id="jCwxgkNCaaUBssKTZP5C-1" value="&lt;font style=&quot;font-size: 21px;&quot;&gt;Etape 2 : Utiliser le serveur WEB comme proxy&lt;br&gt;vers le réseau interne&lt;/font&gt;" style="text;html=1;resizable=0;autosize=1;align=left;verticalAlign=middle;points=[];fillColor=none;strokeColor=none;rounded=0;" parent="1" vertex="1">
          <mxGeometry x="270" y="700" width="450" height="40" as="geometry" />
        </mxCell>
        <mxCell id="jCwxgkNCaaUBssKTZP5C-2" value="" style="shape=flexArrow;endArrow=classic;startArrow=classic;html=1;rounded=0;fontSize=21;exitX=0.681;exitY=0.896;exitDx=0;exitDy=0;exitPerimeter=0;entryX=0;entryY=0.25;entryDx=0;entryDy=0;fillColor=#fa6800;strokeColor=#C73500;" parent="1" source="6a7d8f32e03d9370-2" target="6a7d8f32e03d9370-60" edge="1">
          <mxGeometry width="100" height="100" relative="1" as="geometry">
            <mxPoint x="830" y="610" as="sourcePoint" />
            <mxPoint x="930" y="510" as="targetPoint" />
          </mxGeometry>
        </mxCell>
      </root>
    </mxGraphModel>
  </diagram>
</mxfile>
